<?xml version="1.0" encoding="UTF-8" standalone="no"?>
<svg
   xmlns:dc="http://purl.org/dc/elements/1.1/"
   xmlns:cc="http://creativecommons.org/ns#"
   xmlns:rdf="http://www.w3.org/1999/02/22-rdf-syntax-ns#"
   xmlns:svg="http://www.w3.org/2000/svg"
   xmlns="http://www.w3.org/2000/svg"
   xmlns:sodipodi="http://sodipodi.sourceforge.net/DTD/sodipodi-0.dtd"
   xmlns:inkscape="http://www.inkscape.org/namespaces/inkscape"
   version="1.1"
   width="45"
   height="45"
   id="svg2"
   inkscape:version="0.91 r13725"
   sodipodi:docname="knight.svg">
  <metadata
     id="metadata18">
    <rdf:RDF>
      <cc:Work
         rdf:about="">
        <dc:format>image/svg+xml</dc:format>
        <dc:type
           rdf:resource="http://purl.org/dc/dcmitype/StillImage" />
      </cc:Work>
    </rdf:RDF>
  </metadata>
  <defs
     id="defs16" />
  <sodipodi:namedview
     pagecolor="#ffffff"
     bordercolor="#666666"
     borderopacity="1"
     objecttolerance="10"
     gridtolerance="10"
     guidetolerance="10"
     inkscape:pageopacity="0"
     inkscape:pageshadow="2"
     inkscape:window-width="927"
     inkscape:window-height="647"
     id="namedview14"
     showgrid="false"
     inkscape:zoom="1.3111111"
     inkscape:cx="-155.89699"
     inkscape:cy="-28.871451"
     inkscape:window-x="0"
     inkscape:window-y="0"
     inkscape:window-maximized="0"
     inkscape:current-layer="svg2" />
  <g
     style="opacity:1; fill:none; fill-opacity:1; fill-rule:evenodd; stroke:#000000; stroke-width:1.5; stroke-linecap:round;stroke-linejoin:round;stroke-miterlimit:4; stroke-dasharray:none; stroke-opacity:1;"
     id="g4">
    <path
       d="M 22,10 C 32.5,11 38.5,18 38,39 L 15,39 C 15,30 25,32.5 23,18"
       style="fill:#ffffff; stroke:#000000;"
       id="path6" />
    <path
       d="M 24,18 C 24.38,20.91 18.45,25.37 16,27 C 13,29 13.18,31.34 11,31 C 9.958,30.06 12.41,27.96 11,28 C 10,28 11.19,29.23 10,30 C 9,30 5.997,31 6,26 C 6,24 12,14 12,14 C 12,14 13.89,12.1 14,10.5 C 13.27,9.506 13.5,8.5 13.5,7.5 C 14.5,6.5 16.5,10 16.5,10 L 18.5,10 C 18.5,10 19.28,8.008 21,7 C 22,7 22,10 22,10"
       style="fill:#ffffff; stroke:#000000;"
       id="path8" />
    <path
       d="M 9.5 25.5 A 0.5 0.5 0 1 1 8.5,25.5 A 0.5 0.5 0 1 1 9.5 25.5 z"
       style="fill:#000000; stroke:#000000;"
       id="path10" />
    <path
       d="M 15 15.5 A 0.5 1.5 0 1 1  14,15.5 A 0.5 1.5 0 1 1  15 15.5 z"
       transform="matrix(0.866,0.5,-0.5,0.866,9.693,-5.173)"
       style="fill:#000000; stroke:#000000;"
       id="path12" />
  </g>
  <path
     style="fill:#ffaaaa;fill-opacity:1;stroke:none;stroke-opacity:1"
     d="m 15.953163,37.550656 c 0.356916,-1.902525 0.846745,-2.69746 3.138842,-5.093971 2.440285,-2.551451 3.233179,-3.592966 3.923348,-5.153559 0.598201,-1.35264 1.048206,-3.598742 1.048206,-5.231892 0,-0.909806 0.117592,-1.581111 0.377169,-2.153165 0.380855,-0.83933 0.497554,-1.993842 0.239615,-2.370537 -0.485836,-0.709518 -1.570174,-0.226323 -1.570174,0.69969 0,1.508964 -2.260715,4.076908 -6.197033,7.0392 -2.476945,1.864036 -3.385081,2.703765 -4.379259,4.049383 -0.670593,0.907646 -0.954965,0.919581 -0.580927,0.02438 0.55521,-1.328806 0.173916,-2.169511 -0.983962,-2.169511 -0.72022,0 -1.1581168,0.47172 -1.2390386,1.334746 -0.053868,0.574491 -0.138407,0.676045 -0.6074377,0.729686 -1.3921827,0.159214 -2.2199693,-0.916066 -2.2199693,-2.883705 0,-0.859387 0.1997902,-1.40917 1.401761,-3.85737 1.6723995,-3.406379 4.1501416,-7.757504 4.9144456,-8.630184 0.607829,-0.694016 1.378173,-2.138133 1.573697,-2.950115 0.07886,-0.327485 0.01719,-0.73771 -0.1634,-1.0869292 -0.159535,-0.3085058 -0.290063,-0.7043946 -0.290063,-0.8797531 0,-0.2693357 0.0469,-0.2799089 0.302109,-0.068106 0.166159,0.1379003 0.556404,0.6203347 0.867211,1.0720763 l 0.565102,0.8213487 1.415066,0 1.415065,0 0.645355,-1.0010594 c 0.354946,-0.5505827 0.824281,-1.159784 1.042966,-1.3537808 0.397083,-0.3522528 0.397785,-0.3511803 0.528838,0.807173 0.07217,0.6379419 0.230881,1.2425992 0.35268,1.3436842 0.121799,0.101084 0.818771,0.275863 1.548827,0.388397 9.526929,1.468524 13.618222,8.30033 14.134683,23.602662 l 0.123884,3.670551 -10.729402,0 -10.729402,0 0.131198,-0.699344 z M 9.945962,26.392012 c 0.213831,-0.229521 0.388784,-0.619544 0.388784,-0.866718 0,-0.556677 -0.798448,-1.385463 -1.334746,-1.385463 -0.536298,0 -1.3347458,0.828786 -1.3347458,1.385463 0,0.639749 0.6697274,1.284028 1.3347458,1.284028 0.3276322,0 0.717349,-0.171923 0.945962,-0.41731 z m 5.06776,-9.39732 c 0.767501,-0.813788 1.322818,-2.191794 1.154123,-2.863929 -0.16361,-0.651874 -0.927404,-0.946885 -1.607544,-0.620902 -0.638509,0.306029 -1.746742,2.135844 -1.746742,2.884063 0,1.331858 1.201293,1.659879 2.200163,0.600768 z"
     id="path4146"
     inkscape:connector-curvature="0" />
</svg>
